<svg xmlns="http://www.w3.org/2000/svg" xmlns:xlink="http://www.w3.org/1999/xlink" width="348" zoomAndPan="magnify" viewBox="0 0 261 101.999999" height="136" preserveAspectRatio="xMidYMid meet" version="1.0"><defs><g/><clipPath id="fed395bb56"><path d="M 142 9 L 188 9 L 188 43 L 142 43 Z M 142 9 " clip-rule="nonzero"/></clipPath><clipPath id="bc3df82942"><path d="M 136.949219 12.648438 L 182.671875 4.175781 L 188.410156 35.148438 L 142.691406 43.621094 Z M 136.949219 12.648438 " clip-rule="nonzero"/></clipPath><clipPath id="89ab4bca45"><path d="M 136.949219 12.648438 L 182.671875 4.175781 L 188.410156 35.148438 L 142.691406 43.621094 Z M 136.949219 12.648438 " clip-rule="nonzero"/></clipPath><clipPath id="b526d75cba"><path d="M 117 10 L 151 10 L 151 31 L 117 31 Z M 117 10 " clip-rule="nonzero"/></clipPath><clipPath id="b95a1ada76"><path d="M 151.945312 13.4375 L 150.410156 31.371094 L 116.039062 28.425781 L 117.574219 10.492188 Z M 151.945312 13.4375 " clip-rule="nonzero"/></clipPath><clipPath id="9de7685cc5"><path d="M 151.945312 13.4375 L 150.410156 31.371094 L 116.039062 28.425781 L 117.574219 10.492188 Z M 151.945312 13.4375 " clip-rule="nonzero"/></clipPath><clipPath id="2b10ce3925"><path d="M 130 16 L 147 16 L 147 26 L 130 26 Z M 130 16 " clip-rule="nonzero"/></clipPath><clipPath id="3420aabe0a"><path d="M 151.945312 13.4375 L 150.410156 31.371094 L 116.039062 28.425781 L 117.574219 10.492188 Z M 151.945312 13.4375 " clip-rule="nonzero"/></clipPath><clipPath id="f6cbb7f5bf"><path d="M 151.945312 13.4375 L 150.410156 31.371094 L 116.039062 28.425781 L 117.574219 10.492188 Z M 151.945312 13.4375 " clip-rule="nonzero"/></clipPath></defs><g fill="#000000" fill-opacity="1"><g transform="translate(21.77506, 66.416816)"><g><path d="M 33.46875 -26.796875 C 31.894531 -29.023438 30.0625 -30.742188 27.96875 -31.953125 C 25.882812 -33.160156 23.488281 -33.765625 20.78125 -33.765625 C 18.101562 -33.765625 15.59375 -33.0625 13.25 -31.65625 C 10.914062 -30.25 9.070312 -28.359375 7.71875 -25.984375 C 6.363281 -23.617188 5.6875 -21.066406 5.6875 -18.328125 C 5.6875 -15.578125 6.410156 -13.023438 7.859375 -10.671875 C 9.316406 -8.328125 11.1875 -6.492188 13.46875 -5.171875 C 15.757812 -3.847656 18.097656 -3.1875 20.484375 -3.1875 C 22.703125 -3.1875 24.820312 -3.691406 26.84375 -4.703125 C 28.875 -5.710938 30.515625 -7.097656 31.765625 -8.859375 C 33.023438 -10.628906 33.65625 -12.59375 33.65625 -14.75 L 22.6875 -14.75 L 22.6875 -18.578125 L 38.078125 -18.578125 L 38.078125 -16.46875 C 38.078125 -14.050781 37.664062 -11.8125 36.84375 -9.75 C 36.03125 -7.6875 34.773438 -5.867188 33.078125 -4.296875 C 31.378906 -2.734375 29.453125 -1.519531 27.296875 -0.65625 C 25.140625 0.207031 22.898438 0.640625 20.578125 0.640625 C 17.210938 0.640625 14.0625 -0.207031 11.125 -1.90625 C 8.1875 -3.601562 5.859375 -5.929688 4.140625 -8.890625 C 2.421875 -11.847656 1.5625 -15.007812 1.5625 -18.375 C 1.5625 -21.800781 2.4375 -25 4.1875 -27.96875 C 5.9375 -30.945312 8.304688 -33.289062 11.296875 -35 C 14.285156 -36.71875 17.460938 -37.578125 20.828125 -37.578125 C 24.054688 -37.578125 26.96875 -36.890625 29.5625 -35.515625 C 32.164062 -34.148438 34.460938 -32.175781 36.453125 -29.59375 Z M 33.46875 -26.796875 "/></g></g></g><g fill="#000000" fill-opacity="1"><g transform="translate(61.951854, 66.416816)"><g><path d="M 20.828125 -19.75 L 20.828125 -23.03125 L 24.75 -23.03125 L 24.75 0 L 20.828125 0 L 20.828125 -3.1875 L 20.734375 -3.1875 C 18.703125 -0.632812 16.050781 0.640625 12.78125 0.640625 C 9.582031 0.640625 6.945312 -0.535156 4.875 -2.890625 C 2.800781 -5.242188 1.765625 -8.101562 1.765625 -11.46875 C 1.765625 -15 2.804688 -17.914062 4.890625 -20.21875 C 6.984375 -22.519531 9.632812 -23.671875 12.84375 -23.671875 C 14.4375 -23.671875 15.910156 -23.328125 17.265625 -22.640625 C 18.628906 -21.953125 19.785156 -20.988281 20.734375 -19.75 Z M 13.28125 -20.046875 C 11.1875 -20.046875 9.410156 -19.242188 7.953125 -17.640625 C 6.503906 -16.035156 5.78125 -14.078125 5.78125 -11.765625 C 5.78125 -9.273438 6.488281 -7.1875 7.90625 -5.5 C 9.332031 -3.820312 11.140625 -2.984375 13.328125 -2.984375 C 15.648438 -2.984375 17.507812 -3.785156 18.90625 -5.390625 C 20.3125 -6.992188 21.015625 -9.101562 21.015625 -11.71875 C 21.015625 -14.09375 20.296875 -16.070312 18.859375 -17.65625 C 17.421875 -19.25 15.5625 -20.046875 13.28125 -20.046875 Z M 13.28125 -20.046875 "/></g></g></g><g fill="#000000" fill-opacity="1"><g transform="translate(90.222593, 66.416816)"><g><path d="M 19.65625 -19.84375 C 20.332031 -21.050781 21.285156 -21.988281 22.515625 -22.65625 C 23.742188 -23.332031 25.09375 -23.671875 26.5625 -23.671875 C 28.976562 -23.671875 30.804688 -22.851562 32.046875 -21.21875 C 33.285156 -19.582031 33.90625 -17.265625 33.90625 -14.265625 L 33.90625 0 L 29.984375 0 L 29.984375 -13.671875 C 29.984375 -15.992188 29.640625 -17.632812 28.953125 -18.59375 C 28.273438 -19.5625 27.21875 -20.046875 25.78125 -20.046875 C 24.070312 -20.046875 22.8125 -19.421875 22 -18.171875 C 21.1875 -16.929688 20.78125 -15.023438 20.78125 -12.453125 L 20.78125 0 L 16.859375 0 L 16.859375 -13.28125 C 16.859375 -15.632812 16.503906 -17.347656 15.796875 -18.421875 C 15.097656 -19.503906 14.078125 -20.046875 12.734375 -20.046875 C 11.066406 -20.046875 9.800781 -19.414062 8.9375 -18.15625 C 8.070312 -16.894531 7.640625 -14.894531 7.640625 -12.15625 L 7.640625 0 L 3.71875 0 L 3.71875 -23.03125 L 7.640625 -23.03125 L 7.640625 -20.53125 L 7.734375 -20.53125 C 8.359375 -21.476562 9.144531 -22.238281 10.09375 -22.8125 C 11.039062 -23.382812 12.101562 -23.671875 13.28125 -23.671875 C 14.613281 -23.671875 15.851562 -23.332031 17 -22.65625 C 18.144531 -21.988281 19.03125 -21.050781 19.65625 -19.84375 Z M 19.65625 -19.84375 "/></g></g></g><g fill="#000000" fill-opacity="1"><g transform="translate(127.851589, 66.416816)"><g><path d="M 23.765625 -10.6875 L 5.6875 -10.6875 C 5.75 -8.394531 6.5 -6.535156 7.9375 -5.109375 C 9.375 -3.691406 11.140625 -2.984375 13.234375 -2.984375 C 14.703125 -2.984375 16 -3.359375 17.125 -4.109375 C 18.25 -4.867188 19.285156 -6.078125 20.234375 -7.734375 L 23.5625 -5.828125 C 22.457031 -3.773438 21 -2.179688 19.1875 -1.046875 C 17.375 0.078125 15.289062 0.640625 12.9375 0.640625 C 10.6875 0.640625 8.691406 0.101562 6.953125 -0.96875 C 5.222656 -2.050781 3.910156 -3.5 3.015625 -5.3125 C 2.117188 -7.125 1.671875 -9.09375 1.671875 -11.21875 C 1.671875 -13.570312 2.117188 -15.695312 3.015625 -17.59375 C 3.910156 -19.488281 5.207031 -20.972656 6.90625 -22.046875 C 8.601562 -23.128906 10.582031 -23.671875 12.84375 -23.671875 C 15.03125 -23.671875 16.960938 -23.140625 18.640625 -22.078125 C 20.328125 -21.015625 21.609375 -19.550781 22.484375 -17.6875 C 23.367188 -15.820312 23.8125 -13.734375 23.8125 -11.421875 C 23.8125 -11.191406 23.796875 -10.945312 23.765625 -10.6875 Z M 19.65625 -14.015625 C 19.320312 -15.804688 18.519531 -17.257812 17.25 -18.375 C 15.976562 -19.488281 14.523438 -20.046875 12.890625 -20.046875 C 11.285156 -20.046875 9.78125 -19.460938 8.375 -18.296875 C 6.96875 -17.140625 6.132812 -15.710938 5.875 -14.015625 Z M 19.65625 -14.015625 "/></g></g></g><g fill="#000000" fill-opacity="1"><g transform="translate(153.280554, 66.416816)"><g><path d="M 11.515625 -36.953125 C 14.910156 -36.953125 17.832031 -36.4375 20.28125 -35.40625 C 22.738281 -34.375 24.78125 -32.984375 26.40625 -31.234375 C 28.039062 -29.484375 29.25 -27.515625 30.03125 -25.328125 C 30.820312 -23.140625 31.21875 -20.804688 31.21875 -18.328125 C 31.21875 -15.160156 30.488281 -12.210938 29.03125 -9.484375 C 27.582031 -6.753906 25.4375 -4.488281 22.59375 -2.6875 C 19.75 -0.894531 16.039062 0 11.46875 0 L 3.71875 0 L 3.71875 -36.953125 Z M 11.765625 -3.828125 C 14.015625 -3.828125 16.050781 -4.160156 17.875 -4.828125 C 19.707031 -5.492188 21.328125 -6.492188 22.734375 -7.828125 C 24.140625 -9.171875 25.21875 -10.773438 25.96875 -12.640625 C 26.71875 -14.503906 27.09375 -16.445312 27.09375 -18.46875 C 27.09375 -21.144531 26.492188 -23.570312 25.296875 -25.75 C 24.109375 -27.925781 22.410156 -29.695312 20.203125 -31.0625 C 18.003906 -32.4375 15.039062 -33.125 11.3125 -33.125 L 7.84375 -33.125 L 7.84375 -3.828125 Z M 11.765625 -3.828125 "/></g></g></g><g fill="#000000" fill-opacity="1"><g transform="translate(186.499901, 66.416816)"><g><path d="M 20.828125 -19.75 L 20.828125 -23.03125 L 24.75 -23.03125 L 24.75 0 L 20.828125 0 L 20.828125 -3.1875 L 20.734375 -3.1875 C 18.703125 -0.632812 16.050781 0.640625 12.78125 0.640625 C 9.582031 0.640625 6.945312 -0.535156 4.875 -2.890625 C 2.800781 -5.242188 1.765625 -8.101562 1.765625 -11.46875 C 1.765625 -15 2.804688 -17.914062 4.890625 -20.21875 C 6.984375 -22.519531 9.632812 -23.671875 12.84375 -23.671875 C 14.4375 -23.671875 15.910156 -23.328125 17.265625 -22.640625 C 18.628906 -21.953125 19.785156 -20.988281 20.734375 -19.75 Z M 13.28125 -20.046875 C 11.1875 -20.046875 9.410156 -19.242188 7.953125 -17.640625 C 6.503906 -16.035156 5.78125 -14.078125 5.78125 -11.765625 C 5.78125 -9.273438 6.488281 -7.1875 7.90625 -5.5 C 9.332031 -3.820312 11.140625 -2.984375 13.328125 -2.984375 C 15.648438 -2.984375 17.507812 -3.785156 18.90625 -5.390625 C 20.3125 -6.992188 21.015625 -9.101562 21.015625 -11.71875 C 21.015625 -14.09375 20.296875 -16.070312 18.859375 -17.65625 C 17.421875 -19.25 15.5625 -20.046875 13.28125 -20.046875 Z M 13.28125 -20.046875 "/></g></g></g><g fill="#000000" fill-opacity="1"><g transform="translate(214.770641, 66.416816)"><g><path d="M 7.546875 -40.421875 L 7.546875 0 L 3.625 0 L 3.625 -40.421875 Z M 7.546875 -40.421875 "/></g></g></g><g fill="#000000" fill-opacity="1"><g transform="translate(225.892741, 66.416816)"><g><path d="M 13.8125 -36.609375 C 13.289062 -36.765625 12.84375 -36.890625 12.46875 -36.984375 C 12.09375 -37.085938 11.660156 -37.140625 11.171875 -37.140625 C 9.992188 -37.140625 9.164062 -36.796875 8.6875 -36.109375 C 8.21875 -35.421875 7.984375 -34.148438 7.984375 -32.296875 L 7.984375 -23.03125 L 13.8125 -23.03125 L 13.8125 -19.40625 L 7.984375 -19.40625 L 7.984375 0 L 4.0625 0 L 4.0625 -19.40625 L 1.90625 -19.40625 L 1.90625 -23.03125 L 4.0625 -23.03125 L 4.0625 -33.265625 C 4.0625 -35.035156 4.296875 -36.457031 4.765625 -37.53125 C 5.242188 -38.613281 6.019531 -39.460938 7.09375 -40.078125 C 8.175781 -40.703125 9.488281 -41.03125 11.03125 -41.0625 C 11.519531 -41.0625 12.015625 -41.007812 12.515625 -40.90625 C 13.023438 -40.8125 13.457031 -40.703125 13.8125 -40.578125 Z M 13.8125 -36.609375 "/></g></g></g><g clip-path="url(#fed395bb56)"><g clip-path="url(#bc3df82942)"><g clip-path="url(#89ab4bca45)"><path fill="#4231cc" d="M 165.707031 36.902344 C 174.464844 33.777344 183.746094 31.546875 187.070312 28.019531 C 183.800781 25.941406 175.382812 26.992188 173.480469 25.644531 C 173.480469 25.636719 173.476562 25.628906 173.472656 25.621094 C 173.476562 25.617188 173.480469 25.613281 173.488281 25.609375 C 173.503906 25.59375 173.523438 25.578125 173.53125 25.566406 C 173.535156 25.566406 173.535156 25.566406 173.535156 25.566406 C 173.542969 25.558594 173.546875 25.550781 173.550781 25.546875 C 173.550781 25.542969 173.550781 25.542969 173.550781 25.542969 C 173.550781 25.539062 173.546875 25.535156 173.535156 25.535156 C 173.507812 25.449219 173.476562 25.367188 173.449219 25.289062 C 173.4375 25.25 173.421875 25.207031 173.410156 25.171875 C 173.390625 25.113281 173.371094 25.054688 173.351562 25 C 173.347656 24.988281 173.34375 24.976562 173.339844 24.964844 C 172.9375 23.785156 172.789062 23.277344 171.773438 21.796875 C 171.730469 21.789062 171.679688 21.789062 171.628906 21.789062 C 171.625 21.789062 171.621094 21.789062 171.621094 21.789062 C 171.378906 21.390625 171.121094 20.992188 170.851562 20.597656 C 168.105469 16.589844 163.839844 12.726562 158.652344 10.691406 C 158.453125 10.609375 158.253906 10.539062 158.050781 10.46875 C 158.023438 10.460938 157.992188 10.449219 157.964844 10.441406 C 157.773438 10.375 157.582031 10.316406 157.390625 10.265625 C 157.355469 10.253906 157.320312 10.242188 157.285156 10.234375 C 157.09375 10.179688 156.902344 10.132812 156.710938 10.089844 C 156.683594 10.082031 156.652344 10.074219 156.625 10.070312 C 156.226562 9.980469 155.828125 9.910156 155.433594 9.859375 C 155.40625 9.855469 155.375 9.851562 155.347656 9.847656 C 155.160156 9.824219 154.972656 9.808594 154.789062 9.792969 C 154.75 9.789062 154.714844 9.785156 154.679688 9.785156 C 154.496094 9.769531 154.3125 9.761719 154.128906 9.757812 C 154.097656 9.753906 154.070312 9.753906 154.042969 9.753906 C 153.65625 9.746094 153.277344 9.753906 152.902344 9.777344 C 152.875 9.78125 152.84375 9.78125 152.816406 9.785156 C 152.640625 9.796875 152.460938 9.8125 152.285156 9.835938 C 152.253906 9.839844 152.222656 9.84375 152.1875 9.847656 C 152.011719 9.867188 151.839844 9.890625 151.667969 9.921875 C 151.640625 9.925781 151.613281 9.929688 151.589844 9.933594 C 151.410156 9.964844 151.230469 10 151.054688 10.035156 C 151.054688 10.035156 151.054688 10.035156 151.054688 10.039062 C 150.875 10.074219 150.703125 10.117188 150.53125 10.164062 C 150.507812 10.171875 150.480469 10.175781 150.457031 10.183594 C 150.292969 10.226562 150.132812 10.273438 149.972656 10.324219 C 149.941406 10.335938 149.914062 10.34375 149.882812 10.355469 C 149.722656 10.40625 149.566406 10.460938 149.414062 10.515625 C 149.390625 10.527344 149.367188 10.535156 149.34375 10.542969 C 149.183594 10.605469 149.023438 10.667969 148.867188 10.734375 C 148.867188 10.734375 148.867188 10.734375 148.867188 10.738281 C 146.324219 11.835938 144.492188 13.75 144.070312 15.917969 C 144.070312 15.921875 144.070312 15.925781 144.070312 15.925781 C 144.066406 15.945312 144.0625 15.964844 144.0625 15.984375 C 144.046875 16.054688 144.035156 16.125 144.027344 16.195312 C 144.023438 16.230469 144.019531 16.261719 144.015625 16.296875 C 144.007812 16.359375 144 16.425781 143.996094 16.488281 C 143.992188 16.523438 143.992188 16.554688 143.988281 16.589844 C 143.984375 16.660156 143.984375 16.730469 143.980469 16.800781 C 143.980469 16.828125 143.980469 16.855469 143.980469 16.878906 C 143.980469 16.976562 143.984375 17.074219 143.988281 17.171875 C 143.988281 17.1875 143.992188 17.203125 143.992188 17.222656 C 144 17.300781 144.007812 17.382812 144.015625 17.464844 C 144.019531 17.496094 144.023438 17.53125 144.03125 17.5625 C 144.039062 17.628906 144.050781 17.695312 144.0625 17.765625 C 144.070312 17.800781 144.074219 17.832031 144.082031 17.867188 C 144.097656 17.9375 144.113281 18.007812 144.128906 18.074219 C 144.136719 18.105469 144.144531 18.136719 144.152344 18.167969 C 144.179688 18.265625 144.207031 18.367188 144.238281 18.464844 C 144.734375 16.785156 146.734375 15.167969 148.695312 14.757812 C 149.421875 14.601562 149.648438 13.785156 149.648438 13.785156 C 149.648438 13.785156 149.8125 14.671875 150.207031 14.742188 C 150.886719 14.867188 151.820312 14.867188 152.0625 15.789062 C 152.226562 16.410156 153.691406 17.011719 153.691406 17.011719 C 153.691406 17.011719 153.324219 18.28125 153.457031 18.882812 C 153.949219 21.097656 153.769531 23.492188 153.484375 25.949219 C 153.40625 26.613281 153.324219 27.28125 153.242188 27.949219 C 153.203125 27.964844 153.15625 27.976562 153.121094 27.992188 C 152.859375 30.246094 152.710938 30.570312 152.710938 32.855469 C 152.710938 32.855469 152.757812 32.851562 152.835938 32.839844 C 149.378906 36.816406 144.046875 38.09375 142.414062 42.164062 C 144.78125 42.925781 153.9375 41.105469 165.707031 36.902344 " fill-opacity="1" fill-rule="nonzero"/></g></g></g><g clip-path="url(#b526d75cba)"><g clip-path="url(#b95a1ada76)"><g clip-path="url(#9de7685cc5)"><path fill="#2e2e2e" d="M 117.648438 11.058594 C 118.753906 10.59375 120.027344 10.703125 121.132812 11.125 C 122.445312 11.617188 123.59375 12.511719 124.484375 13.589844 C 124.558594 13.679688 124.644531 13.785156 124.710938 13.871094 C 124.816406 14.007812 124.9375 14.164062 125.03125 14.300781 C 125.566406 15.046875 126.035156 15.859375 126.464844 16.667969 C 126.957031 17.589844 127.429688 18.566406 127.957031 19.464844 C 130.246094 23.371094 133.992188 26.394531 138.296875 27.789062 C 139.535156 28.1875 140.816406 28.457031 142.113281 28.601562 C 144.828125 28.910156 147.585938 28.652344 150.226562 27.96875 C 150.226562 27.96875 150.386719 27.925781 150.386719 27.925781 C 150.386719 27.925781 150.46875 27.90625 150.46875 27.90625 C 150.46875 27.90625 150.550781 27.886719 150.550781 27.886719 C 150.550781 27.886719 150.570312 27.882812 150.570312 27.882812 C 150.625 27.867188 150.675781 27.902344 150.6875 27.953125 C 150.699219 28 150.679688 28.042969 150.640625 28.0625 C 150.25 28.265625 149.855469 28.453125 149.453125 28.625 C 148.140625 29.183594 146.765625 29.585938 145.359375 29.820312 C 141.269531 30.503906 137.03125 29.785156 133.4375 27.695312 C 133.308594 27.625 133.074219 27.480469 132.945312 27.402344 C 132.84375 27.339844 132.695312 27.246094 132.59375 27.179688 C 132.285156 26.976562 131.949219 26.746094 131.648438 26.519531 C 130.992188 26.035156 130.355469 25.488281 129.769531 24.917969 C 128.394531 23.574219 127.226562 22.011719 126.347656 20.300781 C 125.550781 18.757812 124.972656 17.101562 124.160156 15.566406 C 124.042969 15.34375 123.894531 15.078125 123.765625 14.863281 C 123.699219 14.757812 123.582031 14.5625 123.507812 14.453125 C 123.507812 14.453125 123.421875 14.320312 123.421875 14.320312 C 123.421875 14.320312 123.375 14.253906 123.375 14.253906 C 123.367188 14.242188 123.363281 14.230469 123.355469 14.21875 L 123.332031 14.1875 C 123.332031 14.1875 123.238281 14.054688 123.238281 14.054688 C 123.238281 14.054688 123.140625 13.929688 123.140625 13.929688 C 122.753906 13.417969 122.308594 12.953125 121.816406 12.546875 C 121.445312 12.242188 121.042969 11.972656 120.617188 11.757812 C 120.097656 11.492188 119.53125 11.300781 118.953125 11.226562 C 118.535156 11.171875 118.105469 11.183594 117.6875 11.257812 C 117.632812 11.265625 117.582031 11.230469 117.574219 11.175781 C 117.566406 11.128906 117.589844 11.085938 117.632812 11.066406 C 117.632812 11.066406 117.648438 11.058594 117.648438 11.058594 Z M 117.648438 11.058594 " fill-opacity="1" fill-rule="nonzero"/></g></g></g><g clip-path="url(#2b10ce3925)"><g clip-path="url(#3420aabe0a)"><g clip-path="url(#f6cbb7f5bf)"><path fill="#2e2e2e" d="M 130.265625 16.835938 C 131.207031 17.578125 132.179688 18.460938 133.097656 19.207031 C 133.304688 19.375 133.5625 19.585938 133.769531 19.75 C 136.476562 21.90625 139.121094 23.402344 142.558594 24.007812 C 143.746094 24.222656 144.925781 24.269531 146.152344 24.246094 C 146.203125 24.246094 146.246094 24.285156 146.246094 24.339844 C 146.246094 24.375 146.226562 24.410156 146.191406 24.425781 C 146.054688 24.496094 145.777344 24.625 145.632812 24.683594 C 144.585938 25.121094 143.457031 25.355469 142.324219 25.394531 C 138.707031 25.511719 135.433594 23.851562 133.011719 21.234375 C 131.894531 20.035156 130.964844 18.664062 130.226562 17.203125 C 130.226562 17.203125 130.089844 16.929688 130.089844 16.929688 C 130.066406 16.882812 130.085938 16.824219 130.132812 16.800781 C 130.167969 16.785156 130.203125 16.789062 130.234375 16.8125 C 130.234375 16.8125 130.265625 16.835938 130.265625 16.835938 Z M 130.265625 16.835938 " fill-opacity="1" fill-rule="nonzero"/></g></g></g></svg>